<svg width="578" height="339" viewBox="0 0 578 339" fill="none" xmlns="http://www.w3.org/2000/svg">
<path d="M19.6224 169.06H88.0308V222.05H19.6224V169.06Z" fill="#141414"/>
<path d="M7.83055 169.061H70.407V222.05H7.83055V169.061Z" fill="#A1C487"/>
<path d="M7.66007 222.259H70.6621V168.845H7.66007V222.259ZM70.194 221.835H8.04336V169.269H70.194V221.835Z" fill="#141414"/>
<path d="M29.2851 169.061V182.277L33.2013 180.117L36.2237 182.15L39.8421 180.117L43.1626 182.277V169.061H29.2851Z" fill="#141414"/>
<path d="M43.1641 195.066H57.595V195.914H43.1641V195.066Z" fill="#141414"/>
<path d="M43.1641 200.656H57.595V201.504H43.1641V200.656Z" fill="#141414"/>
<path d="M43.1641 206.25H57.595V207.098H43.1641V206.25Z" fill="#141414"/>
<path d="M15.5787 193.922H38.949V208.451H15.5787V193.922Z" fill="#FEFEFE"/>
<path d="M15.3662 208.622H39.1622V193.669H15.3662V208.622ZM38.7365 208.198H15.7919V194.093H38.7365V208.198Z" fill="#141414"/>
<path d="M86.1599 231.751H67.8977C67.0463 231.751 66.195 232.132 65.6842 232.81L56.4466 244.374C54.9567 246.238 56.2764 248.949 58.6603 248.949H86.1599V231.751Z" fill="#F27B79"/>
<path d="M58.6602 249.156H86.3727V231.535H67.8976C66.9611 231.535 66.0673 231.959 65.5139 232.679L56.2763 244.243C55.5527 245.175 55.3825 246.403 55.9359 247.462C56.4041 248.479 57.4683 249.156 58.6602 249.156ZM85.947 248.733H58.6602C57.6386 248.733 56.7446 248.182 56.2763 247.25C55.8507 246.318 55.9359 245.259 56.5744 244.497L65.8117 232.933C66.3226 232.297 67.0464 231.959 67.8552 231.959H85.9044V248.733H85.947Z" fill="#141414"/>
<path d="M272.229 159.066C272.229 160.633 270.953 161.862 269.42 161.862H260.225C258.65 161.862 257.416 160.591 257.416 159.066C257.416 157.499 258.693 156.27 260.225 156.27H269.42C270.953 156.228 272.229 157.499 272.229 159.066Z" fill="#141414"/>
<path d="M237.535 162.365H248.858V178.334H237.535V162.365Z" fill="#141414"/>
<path d="M266.694 280.797V187.44C266.694 179.519 260.223 173.081 252.263 173.081H210.545C202.585 173.081 196.114 179.519 196.114 187.44V273.427C196.114 280.712 190.197 286.6 182.875 286.6H171.169C163.847 286.6 157.93 280.712 157.93 273.427V235.855C157.93 235.855 158.228 224.503 165.252 222.851H93.1402C93.1402 222.851 63.1716 247.165 56.8714 286.346V290.666H266.694V280.797Z" fill="#A1C487"/>
<path d="M56.6587 290.881H266.907V187.443C266.907 179.395 260.351 172.872 252.263 172.872H210.545C202.457 172.872 195.902 179.395 195.902 187.443V273.429C195.902 280.588 190.07 286.391 182.876 286.391H171.169C163.975 286.391 158.143 280.588 158.143 273.429V235.858C158.143 235.731 158.484 224.676 165.337 223.066L167.125 222.642H93.0978L93.0552 222.685C92.97 222.727 85.4353 228.911 77.262 239.755C69.6848 249.794 59.9792 266.017 56.7439 286.306L56.6587 290.881ZM266.481 290.457H57.0844V286.349C60.3196 266.186 69.9828 250.006 77.5175 240.051C85.3076 229.716 92.5017 223.659 93.2254 223.066H163.975C158.058 225.65 157.76 235.392 157.717 235.858V273.429C157.717 280.8 163.762 286.814 171.169 286.814H182.876C190.283 286.814 196.327 280.8 196.327 273.429V187.443C196.327 179.649 202.713 173.296 210.545 173.296H252.263C260.096 173.296 266.481 179.649 266.481 187.443V290.457Z" fill="#141414"/>
<path d="M238.259 173.039H243.367V266.904H238.259V173.039Z" fill="#141414"/>
<path d="M2.28882e-05 220.565H97.3979V225.394H2.28882e-05V220.565Z" fill="#141414"/>
<path d="M109.445 290.926H177.13V304.777H109.445V290.926Z" fill="#141414"/>
<path d="M85.0536 332.056C68.0323 332.056 54.2338 316.448 54.2338 297.195C54.2338 277.942 68.0323 262.335 85.0536 262.335C102.075 262.335 115.874 277.942 115.874 297.195C115.874 316.448 102.075 332.056 85.0536 332.056Z" fill="#141414"/>
<path d="M79.8592 318.326C68.7859 318.326 59.8091 308.161 59.8091 295.622C59.8091 283.084 68.7859 272.919 79.8592 272.919C90.9325 272.919 99.9092 283.084 99.9092 295.622C99.9092 308.161 90.9325 318.326 79.8592 318.326Z" fill="#FEFEFE"/>
<path d="M79.8595 318.542C91.0551 318.542 100.122 308.249 100.122 295.626C100.122 283.003 91.0125 272.71 79.8595 272.71C68.7064 272.71 59.5966 283.003 59.5966 295.626C59.5966 308.249 68.6638 318.542 79.8595 318.542ZM79.8595 273.134C90.7997 273.134 99.6966 283.215 99.6966 295.626C99.6966 308.037 90.7997 318.118 79.8595 318.118C68.9192 318.118 60.0223 308.037 60.0223 295.626C60.0223 283.215 68.9192 273.134 79.8595 273.134Z" fill="#141414"/>
<path d="M90.4595 295.75C90.4595 300.791 88.0756 305.281 80.4558 305.281C75.986 305.281 74.3259 300.791 74.3259 295.75C74.3259 290.709 76.0286 286.6 80.4558 286.6C88.0756 286.6 90.4595 290.667 90.4595 295.75Z" fill="#141414"/>
<path d="M79.9441 304.899C75.4772 304.899 71.856 300.803 71.856 295.75C71.856 290.696 75.4772 286.6 79.9441 286.6C84.4111 286.6 88.0322 290.696 88.0322 295.75C88.0322 300.803 84.4111 304.899 79.9441 304.899Z" fill="#FEFEFE"/>
<path d="M79.9445 305.07C84.4994 305.07 88.2455 300.876 88.2455 295.708C88.2455 290.541 84.542 286.347 79.9445 286.347C75.3471 286.347 71.6436 290.541 71.6436 295.708C71.6436 300.876 75.3896 305.07 79.9445 305.07ZM79.9445 286.813C84.2866 286.813 87.8198 290.837 87.8198 295.751C87.8198 300.664 84.2866 304.689 79.9445 304.689C75.6025 304.689 72.0693 300.664 72.0693 295.751C72.0693 290.837 75.6025 286.813 79.9445 286.813Z" fill="#141414"/>
<path d="M258.692 332.056C241.671 332.056 227.872 316.448 227.872 297.195C227.872 277.942 241.671 262.335 258.692 262.335C275.714 262.335 289.512 277.942 289.512 297.195C289.512 316.448 275.714 332.056 258.692 332.056Z" fill="#141414"/>
<path d="M253.498 318.326C242.424 318.326 233.448 308.161 233.448 295.622C233.448 283.084 242.424 272.919 253.498 272.919C264.571 272.919 273.548 283.084 273.548 295.622C273.548 308.161 264.571 318.326 253.498 318.326Z" fill="#FEFEFE"/>
<path d="M253.498 318.542C264.694 318.542 273.761 308.249 273.761 295.626C273.761 283.003 264.651 272.71 253.498 272.71C242.345 272.71 233.235 283.003 233.235 295.626C233.235 308.249 242.302 318.542 253.498 318.542ZM253.498 273.134C264.438 273.134 273.335 283.215 273.335 295.626C273.335 308.037 264.438 318.118 253.498 318.118C242.558 318.118 233.661 308.037 233.661 295.626C233.661 283.215 242.558 273.134 253.498 273.134Z" fill="#141414"/>
<path d="M264.098 295.75C264.098 300.791 261.714 304.899 254.094 304.899C249.625 304.899 247.964 300.791 247.964 295.75C247.964 290.709 249.667 286.6 254.094 286.6C261.714 286.6 264.098 290.667 264.098 295.75Z" fill="#141414"/>
<path d="M253.583 304.899C249.116 304.899 245.495 300.803 245.495 295.75C245.495 290.696 249.116 286.6 253.583 286.6C258.05 286.6 261.671 290.696 261.671 295.75C261.671 300.803 258.05 304.899 253.583 304.899Z" fill="#FEFEFE"/>
<path d="M253.582 305.07C258.137 305.07 261.883 300.876 261.883 295.708C261.883 290.541 258.18 286.347 253.582 286.347C248.985 286.347 245.281 290.541 245.281 295.708C245.281 300.876 249.027 305.07 253.582 305.07ZM253.582 286.813C257.924 286.813 261.458 290.837 261.458 295.751C261.458 300.664 257.924 304.689 253.582 304.689C249.24 304.689 245.707 300.664 245.707 295.751C245.707 290.837 249.283 286.813 253.582 286.813Z" fill="#141414"/>
<path d="M28.394 286.477H32.3104C32.8213 282.453 36.2692 279.361 40.4409 279.361H127.452V295.711H40.4409C36.482 295.711 33.1617 292.916 32.3954 289.188H28.394V286.477Z" fill="#141414"/>
<path d="M43.8466 290.666C43.8466 290.666 38.4404 247.546 89.0549 235.813C107.317 231.577 149.247 228.824 139.84 290.666H43.8466Z" fill="#A1C487"/>
<path d="M43.6325 290.881H139.966L140.009 290.712C143.499 267.712 140.221 251.361 130.26 242.212C118.086 230.987 99.1424 233.275 88.9684 235.647C77.3897 238.315 67.8117 242.89 60.4472 249.201C54.5727 254.242 50.1031 260.426 47.2085 267.584C42.2705 279.741 43.5475 290.585 43.5901 290.712L43.6325 290.881ZM139.625 290.458H44.0158C43.8881 288.975 43.0793 278.894 47.6341 267.712C52.1464 256.614 63.0014 242.085 89.0536 236.028C99.1425 233.698 117.915 231.411 129.962 242.509C139.838 251.573 143.074 267.712 139.625 290.458Z" fill="#141414"/>
<path d="M160.484 225.395H97.0135C90.4153 225.395 85.0516 220.058 85.0516 213.493C85.0516 206.546 91.0112 201.082 97.9499 201.633L161.207 206.631C166.103 207.012 169.891 211.079 169.891 215.992C169.891 221.16 165.677 225.395 160.484 225.395Z" fill="#141414"/>
<path d="M225.53 285.885H298.068C298.068 285.885 296.876 275.253 289.682 265.595C273.931 244.628 241.196 247.509 229.617 270.975C227.531 275.126 226.084 280.039 225.53 285.885Z" fill="#A1C487"/>
<path d="M225.275 286.092H298.281L298.238 285.838C298.238 285.71 296.961 275.036 289.81 265.463C282.36 255.509 270.441 250.257 257.925 251.401C245.495 252.544 234.853 259.83 229.362 270.885C227.191 275.333 225.786 280.331 225.275 285.838V286.092ZM297.812 285.668H225.786C226.297 280.331 227.659 275.418 229.787 271.097C235.194 260.169 245.708 252.968 258.01 251.867C270.355 250.723 282.147 255.933 289.512 265.76C295.982 274.443 297.557 284.059 297.812 285.668Z" fill="#141414"/>
<path d="M43.3357 293.463H229.916V287.872H297.983V282.789H229.788C227.021 282.789 224.807 285.034 224.807 287.745V288.38H43.3357V293.463Z" fill="#141414"/>
<path d="M174.235 320.868H186.708V315.785H175.981L151.972 297.571L148.907 301.595L174.235 320.868Z" fill="#141414"/>
<path d="M237.151 167.663H252.689C253.625 167.663 254.562 167.536 255.413 167.324C260.351 166.095 264.012 161.648 264.012 156.353C264.012 153.219 262.735 150.423 260.692 148.39C259.244 146.95 257.456 145.933 255.413 145.425C254.519 145.213 253.625 145.086 252.646 145.086H250.39C242.6 145.086 235.15 148.941 231.106 155.591C230.894 155.93 230.681 156.311 230.468 156.692C227.871 161.69 231.489 167.663 237.151 167.663Z" fill="#A1C487"/>
<path d="M237.151 167.874H252.689C253.625 167.874 254.562 167.747 255.498 167.535C260.649 166.264 264.268 161.689 264.268 156.352C264.268 153.26 263.076 150.38 260.862 148.22C259.372 146.737 257.499 145.678 255.498 145.17C254.562 144.958 253.625 144.831 252.689 144.831H250.433C242.43 144.831 234.98 148.897 230.979 155.463C230.766 155.844 230.553 156.183 230.34 156.564C229.063 158.936 229.106 161.774 230.51 164.104C231.958 166.476 234.427 167.874 237.151 167.874ZM252.689 145.297C253.583 145.297 254.519 145.424 255.371 145.636C257.329 146.102 259.117 147.118 260.564 148.559C262.65 150.634 263.842 153.43 263.842 156.395C263.842 161.52 260.351 165.925 255.413 167.154C254.519 167.365 253.625 167.492 252.731 167.492H237.194C234.597 167.492 232.256 166.179 230.936 163.934C229.616 161.732 229.531 159.063 230.766 156.818C230.979 156.437 231.192 156.098 231.404 155.717C235.321 149.279 242.643 145.297 250.475 145.297H252.689Z" fill="#141414"/>
<path d="M247.624 156.396C247.624 160.886 249.582 164.91 252.69 167.706H252.732C258.99 167.706 264.098 162.665 264.098 156.396C264.098 153.262 262.821 150.466 260.778 148.433C258.734 146.4 255.882 145.129 252.775 145.129H252.732C249.54 147.882 247.624 151.906 247.624 156.396Z" fill="#141414"/>
<path d="M250.73 156.392C250.73 160.713 252.518 164.568 255.412 167.363C260.35 166.135 264.011 161.687 264.011 156.392C264.011 153.258 262.734 150.462 260.691 148.429C259.244 146.988 257.456 145.972 255.412 145.463C252.518 148.174 250.73 152.071 250.73 156.392Z" fill="#FEFEFE"/>
<path d="M255.373 167.579L255.501 167.536C260.651 166.265 264.27 161.691 264.27 156.354C264.27 153.262 263.078 150.381 260.864 148.221C259.374 146.738 257.501 145.68 255.501 145.171L255.373 145.129L255.288 145.214C252.223 148.136 250.52 152.076 250.52 156.311C250.52 160.547 252.223 164.486 255.288 167.409L255.373 167.579ZM255.501 145.68C257.416 146.188 259.162 147.162 260.566 148.56C262.652 150.635 263.844 153.431 263.844 156.396C263.844 161.479 260.439 165.842 255.501 167.113C252.563 164.275 250.946 160.462 250.946 156.396C250.946 152.287 252.563 148.518 255.501 145.68Z" fill="#141414"/>
<path d="M221.871 157.37H230.257V160.801H221.871V157.37Z" fill="#A1C487"/>
<path d="M221.699 161.055H230.511V157.2H221.699V161.055ZM230.043 160.631H222.082V157.624H230.043V160.631Z" fill="#141414"/>
<path d="M233.405 156.227H230.042C228.467 156.227 227.232 157.498 227.232 159.023C227.232 160.59 228.509 161.818 230.042 161.818H233.405C234.98 161.818 236.214 160.548 236.214 159.023C236.214 157.498 234.98 156.227 233.405 156.227Z" fill="#141414"/>
<path d="M223.486 159.066C223.486 160.633 222.209 161.862 220.677 161.862H211.482C209.907 161.862 208.672 160.591 208.672 159.066C208.672 157.499 209.949 156.27 211.482 156.27H220.677C222.209 156.228 223.486 157.499 223.486 159.066Z" fill="#141414"/>
<path d="M71.558 279.825H113.105V282.197H71.558V279.825Z" fill="white"/>
<path d="M71.3455 282.411H113.319V279.615H71.3455V282.411ZM112.893 281.987H71.7712V280.039H112.893V281.987Z" fill="#141414"/>
<path d="M71.558 273.557H113.105V275.929H71.558V273.557Z" fill="white"/>
<path d="M71.3455 276.138H113.319V273.343H71.3455V276.138ZM112.893 275.715H71.7712V273.766H112.893V275.715Z" fill="#141414"/>
<path d="M71.558 267.328H113.105V269.7H71.558V267.328Z" fill="white"/>
<path d="M71.3455 269.916H113.319V267.12H71.3455V269.916ZM112.893 269.492H71.7712V267.544H112.893V269.492Z" fill="#141414"/>
<path d="M134.815 320.825H222.082V321.673H134.815V320.825Z" fill="#141414"/>
<path d="M304.799 338.345H578V339H304.799V338.345Z" fill="#141414"/>
<path d="M367.04 338.254H400.326C400.326 338.254 398.226 331.121 383.477 325.26L383.523 323.625L383.66 314.765H367.907L367.634 322.58L367.04 338.254Z" fill="#141414"/>
<path d="M366.766 338.486H400.6L400.509 338.214C400.418 337.941 398.226 330.945 383.661 325.129L383.798 314.588H367.588L366.766 338.486ZM400.007 338.032H367.269L368.091 314.997H383.387L383.25 325.402L383.387 325.447C396.172 330.581 399.413 336.669 400.007 338.032Z" fill="#141414"/>
<path d="M323.664 338.254H356.95C356.95 338.254 354.85 331.121 340.101 325.26L340.239 324.169L341.517 314.765H325.764L325.034 322.943L323.664 338.254Z" fill="#141414"/>
<path d="M323.39 338.485H357.27L357.178 338.212C357.087 337.939 354.896 330.943 340.33 325.127L341.745 314.541H325.536L323.39 338.485ZM356.631 338.03H323.892L325.947 314.995H341.243L339.828 325.4L340.01 325.445C352.841 330.579 356.037 336.667 356.631 338.03Z" fill="#141414"/>
<path d="M520.276 338.254H553.562L551.417 321.671L550.549 314.765H534.796L536.668 323.261L537.125 327.077C521.646 331.802 520.276 338.254 520.276 338.254Z" fill="#141414"/>
<path d="M520.003 338.485H553.837L550.777 314.541H534.523L536.486 323.31L536.897 326.899C521.646 331.579 520.094 337.939 520.048 338.212L520.003 338.485ZM553.334 338.03H520.596C521.098 336.758 523.884 331.351 537.216 327.308L537.399 327.262L536.942 323.264L535.116 315.041H550.367L553.334 338.03Z" fill="#141414"/>
<path d="M481.922 338.254H515.208L514.386 321.943L514.021 314.765H498.268L498.679 323.488L498.77 326.577C484.022 332.484 481.922 338.254 481.922 338.254Z" fill="#141414"/>
<path d="M481.602 338.485H515.481L514.248 314.541H498.039L498.496 323.537L498.587 326.49C484.022 332.306 481.83 337.985 481.739 338.212L481.602 338.485ZM514.979 338.03H482.286C482.971 336.758 486.35 331.806 498.861 326.808L498.998 326.763L498.907 323.491L498.496 314.995H513.792L514.979 338.03Z" fill="#141414"/>
<path d="M393.204 12.768L370.054 7.58862L367.543 16.3573C366.904 15.903 366.265 15.6304 365.671 15.6304C362.931 15.6304 362.384 18.9016 362.384 18.9016C361.607 22.4454 363.936 24.6262 364.986 26.171L357.041 51.4775L376.721 54.5215L378.41 38.3472C395.35 46.8433 393.204 12.768 393.204 12.768Z" fill="#FFAC71"/>
<path d="M376.95 54.7025L378.639 38.619C381.972 40.2091 384.849 40.3 387.132 38.8007C394.711 33.803 393.524 13.585 393.478 12.7218V12.5401L369.918 7.26978L367.452 15.9022C366.859 15.4933 366.265 15.3115 365.717 15.3115C362.841 15.3115 362.201 18.719 362.201 18.7645C361.516 21.854 363.114 23.8985 364.256 25.3978C364.439 25.6249 364.621 25.8521 364.758 26.0793L356.768 51.5221L376.95 54.7025ZM378.228 37.9375L376.539 54.2027L357.361 51.2041L365.261 26.0793L365.215 25.9884C365.032 25.7612 364.85 25.4886 364.621 25.216C363.526 23.7622 362.019 21.8085 362.658 18.9462C362.703 18.8099 363.206 15.8567 365.717 15.8567C366.265 15.8567 366.859 16.0839 367.452 16.5382L367.726 16.72L370.283 7.86041L393.068 12.949C393.159 14.9481 393.935 33.8484 386.903 38.4372C384.712 39.8911 381.881 39.7548 378.593 38.1192L378.228 37.9375Z" fill="#141414"/>
<path d="M400.144 2.86516C399.094 2.63799 396.446 2.86516 394.848 4.18279C394.939 4.00105 395.03 3.81931 395.122 3.63757C397.496 -3.45035 387.496 1.82015 382.2 2.86516C381.104 3.09234 378.684 3.41039 378.684 3.41039C362.84 -0.179003 364.438 15.9051 364.438 15.9051C368.593 15.3145 369.826 20.9484 369.826 20.9484C374.072 18.9493 375.397 16.0869 375.533 14.8601C379.643 16.723 390.19 20.2669 398.912 13.9968C404.893 9.68047 402.793 3.36495 400.144 2.86516Z" fill="#141414"/>
<path d="M492.104 70.2456C492.104 70.2456 498.542 58.2965 499.09 52.3447L496.396 39.2599C496.396 39.2599 496.076 26.7202 512.651 29.7643C512.651 29.7643 512.56 23.8579 516.487 22.4495C516.487 22.4495 514.569 25.7661 515.254 29.0373C515.254 29.0373 518.45 21.768 524.477 25.5844C524.477 25.5844 529.135 28.1286 527.902 32.7629C527.902 32.7629 527.993 38.0332 520.733 38.124C520.733 38.124 520.824 44.7119 536.851 53.6623C536.851 53.6623 550.184 60.023 549.088 73.8802C547.992 87.7375 535.573 96.4607 535.573 96.4607L489.912 96.5061L492.104 70.2456Z" fill="#141414"/>
<path d="M517.446 75.3329L515.482 52.4798C515.482 52.4798 518.907 50.4807 518.039 46.5734C518.039 46.5734 517.217 43.4385 514.067 45.8465L513.976 40.3036C513.976 40.3036 502.926 44.438 496.488 38.2136C496.488 38.2136 491.83 59.84 501.647 59.7946L499.547 77.968L517.446 75.3329Z" fill="#FFAC71"/>
<path d="M499.319 78.2408L517.72 75.5602L515.756 52.6163C516.395 52.2074 519.089 50.1629 518.313 46.5282C518.313 46.4828 517.948 45.1652 516.852 44.8017C516.121 44.5746 515.3 44.7563 514.341 45.3924L514.249 39.9858L513.93 40.0766C513.839 40.1221 502.971 44.0748 496.67 38.0321L496.396 37.7595L496.305 38.1684C496.168 38.7591 493.2 52.8435 497.492 58.0683C498.497 59.295 499.821 59.9311 501.419 59.9765L499.319 78.2408ZM517.217 75.1513L499.866 77.6956L501.967 59.5676H501.693C500.095 59.5676 498.816 58.977 497.857 57.7957C494.113 53.2069 496.259 41.0307 496.716 38.6682C502.606 43.9385 512.012 41.2125 513.838 40.6218L513.93 46.301L514.295 46.0284C515.254 45.3015 516.076 45.0289 516.715 45.2561C517.583 45.5287 517.902 46.6645 517.902 46.6645C518.724 50.39 515.573 52.2528 515.437 52.3437L515.3 52.4346V52.5709L517.217 75.1513Z" fill="#141414"/>
<path d="M367.589 322.625L383.478 323.624L383.615 314.764H367.863L367.589 322.625Z" fill="#141414"/>
<path d="M325.033 322.943L340.238 324.169L341.517 314.764H325.764L325.033 322.943Z" fill="#141414"/>
<path d="M347.727 131.941L348.366 135.394L352.247 156.702L362.293 211.495L362.886 229.578L365.945 320.172H392.52L395.488 212.04L391.287 151.75L389.871 131.941H347.727Z" fill="#CDCBCC"/>
<path d="M365.716 320.402H392.747V320.175L395.715 212.043L390.099 131.717H347.452L362.064 211.543L365.716 320.402ZM392.291 319.948H366.127L362.475 211.498L347.955 132.171H389.597L395.259 212.089L392.291 319.948Z" fill="#141414"/>
<path d="M534.796 314.764L536.714 323.261L551.462 321.67L550.549 314.764H534.796Z" fill="#141414"/>
<path d="M498.268 314.764L498.679 323.533L514.386 321.943L514.02 314.764H498.268Z" fill="#141414"/>
<path d="M320.696 320.629H347.545L362.886 229.58L366.311 209.18L372.155 156.568L374.484 135.396H330.879L331.061 152.115L331.7 207.272L320.696 320.629Z" fill="#CDCBCC"/>
<path d="M320.468 320.853H347.773L347.818 320.671L366.585 209.222L374.804 135.166H330.696L331.518 207.269L320.468 320.853ZM347.362 320.398H320.97L331.929 207.314L331.107 135.62H374.256L366.082 209.132L347.362 320.398Z" fill="#141414"/>
<path d="M485.574 198.183L492.606 320.172H516.897L516.075 242.844L515.573 198.728L519.089 157.838L520.459 141.527L500.094 141.209L488.588 140.982L487.629 159.291L485.574 198.183Z" fill="#141414"/>
<path d="M492.423 320.402H517.126V320.175L515.801 198.731L520.733 141.303L488.405 140.758L485.346 198.186L492.423 320.402ZM516.669 319.948H492.834L485.803 198.186L488.816 141.212L520.23 141.757L515.345 198.731L516.669 319.948Z" fill="#141414"/>
<path d="M330.878 135.397L331.061 152.117C338.641 154.616 345.764 156.07 352.247 156.706C359.69 157.478 366.402 157.251 372.155 156.524C380.785 155.479 387.36 153.298 391.241 151.708L389.871 131.899H347.727L348.366 135.352H330.878V135.397Z" fill="#141414"/>
<path d="M499.82 139.303L500.094 141.211L502.696 160.066L509.591 209.771L516.075 242.846L531.051 319.447L553.288 319.902L543.06 207.363L540.229 148.571L539.727 138.213L499.82 139.303Z" fill="#141414"/>
<path d="M553.563 320.129V319.856L543.335 207.317L539.956 137.94L499.592 139.03L509.364 209.816L530.87 319.674L553.563 320.129ZM539.499 138.439L542.832 207.362L553.06 319.629L531.235 319.174L509.82 209.679L500.095 139.484L539.499 138.439Z" fill="#141414"/>
<path d="M490.506 73.5125L472.79 96.4564L448.042 101.272V118.992L477.036 116.265C479.045 116.084 480.918 115.357 482.561 114.221L494.159 106.043L490.506 73.5125Z" fill="#CDCBCC"/>
<path d="M447.814 119.265L477.082 116.493C479.091 116.312 481.054 115.585 482.744 114.403L494.479 106.135L490.734 72.9226L472.699 96.23L447.86 101.091V119.265H447.814ZM493.976 105.953L482.47 114.085C480.872 115.221 479 115.903 477.036 116.084L448.27 118.811V101.5L472.927 96.6844L472.973 96.6389L490.369 74.1493L493.976 105.953Z" fill="#141414"/>
<path d="M377.862 48.7093C377.862 48.7093 374.437 56.7511 359.05 40.8948L332.658 50.5721C328.914 52.2077 326.266 55.6152 325.581 59.6134L321.426 82.9662H335.854L329.188 145.392C329.188 145.392 348.639 150.526 363.525 150.844C388.09 151.389 393.523 147.028 393.523 147.028L392.427 124.856L392.245 74.4247C392.519 67.2462 389.505 61.8396 385.213 56.0241L377.862 48.7093Z" fill="#A1C487"/>
<path d="M367.634 151.117C388.501 151.117 393.432 147.346 393.615 147.21L393.706 147.119L392.61 124.811L392.428 74.3797C392.702 67.3375 389.78 61.84 385.351 55.8428L377.771 48.3008L377.634 48.6189C377.588 48.6643 376.949 50.0727 375.031 50.4362C372.52 50.8905 367.771 49.573 359.187 40.7134L359.096 40.6226L358.959 40.668L332.567 50.3453C328.732 52.0264 326.038 55.4793 325.353 59.5683L321.152 83.1938H335.581L328.915 145.574L329.097 145.62C329.28 145.665 348.731 150.754 363.479 151.117C364.895 151.117 366.31 151.117 367.634 151.117ZM393.25 146.892C392.428 147.437 385.99 151.117 363.479 150.617C349.599 150.299 331.472 145.71 329.417 145.211L336.083 82.694H321.7L325.81 59.6138C326.495 55.6611 329.052 52.3444 332.75 50.7542L359.005 41.1678C367.68 50.0727 372.611 51.3903 375.168 50.8905C376.812 50.5725 377.634 49.573 377.954 49.0732L385.077 56.1154C389.551 62.2035 392.291 67.4284 392.017 74.3797L392.2 124.811L393.25 146.892Z" fill="#141414"/>
<path d="M393.615 72.1519H466.443V128.58H393.615V72.1519Z" fill="#141414"/>
<path d="M381.058 72.1519H447.676V128.58H381.058V72.1519Z" fill="#FEFEFE"/>
<path d="M380.83 128.804H447.905V71.9216H380.83V128.804ZM447.448 128.35H381.287V72.376H447.448V128.35Z" fill="#141414"/>
<path d="M403.888 72.1521V86.2371L408.043 83.9653L411.24 86.1008L415.075 83.9653L418.636 86.2371V72.1521H403.888Z" fill="#141414"/>
<path d="M418.59 99.866H433.978V100.775H418.59V99.866Z" fill="#141414"/>
<path d="M418.59 105.819H433.978V106.728H418.59V105.819Z" fill="#141414"/>
<path d="M418.59 111.768H433.978V112.677H418.59V111.768Z" fill="#141414"/>
<path d="M389.277 98.6396H414.161V114.088H389.277V98.6396Z" fill="#FEFEFE"/>
<path d="M389.049 114.313H414.391V98.4106H389.049V114.313ZM413.934 113.859H389.506V98.865H413.934V113.859Z" fill="#141414"/>
<path d="M487.63 159.295C491.465 159.84 496.716 160.294 502.697 160.067C507.72 159.885 513.29 159.249 519.044 157.841C526.03 156.114 533.29 153.206 540.184 148.572L539.682 138.213L499.821 139.303L500.095 141.211L488.588 141.03L487.63 159.295Z" fill="#141414"/>
<path d="M447.813 130.443C448.224 131.124 448.772 131.669 449.411 132.124C450.05 132.578 450.781 132.896 451.557 133.032L455.164 133.85C457.493 134.35 459.867 134.623 462.241 134.623H465.392C466.305 134.623 467.218 134.396 467.995 133.941L471.374 132.078L474.935 131.669L488.177 130.079V119.947L477.035 121.674L471.876 122.491L460.689 119.402C460.689 119.402 458.726 123.446 464.844 125.49L458.908 128.398H448.954C447.904 128.307 447.219 129.534 447.813 130.443Z" fill="#E78D4C"/>
<path d="M462.287 134.808H465.438C466.397 134.808 467.356 134.581 468.177 134.081L471.511 132.264L488.45 130.219V119.633L471.922 122.222L460.598 119.087L460.507 119.269C460.461 119.315 459.776 120.769 460.507 122.404C461.055 123.722 462.333 124.767 464.296 125.494L458.908 128.129H449C448.407 128.129 447.859 128.447 447.585 128.947C447.311 129.447 447.311 130.083 447.63 130.583C448.087 131.264 448.635 131.855 449.274 132.309C449.959 132.763 450.69 133.082 451.466 133.263L455.073 134.081C457.493 134.581 459.867 134.808 462.287 134.808ZM487.994 129.856L471.328 131.855L467.949 133.718C467.173 134.127 466.305 134.354 465.438 134.354H462.287C459.913 134.354 457.539 134.081 455.256 133.581L451.649 132.763C450.918 132.582 450.233 132.309 449.594 131.855C449 131.446 448.452 130.901 448.041 130.265C447.813 129.901 447.813 129.447 447.996 129.083C448.178 128.72 448.589 128.493 449 128.493H459L465.483 125.312L464.935 125.13C462.835 124.449 461.465 123.404 460.917 122.132C460.415 120.996 460.689 119.951 460.872 119.542L471.922 122.586L487.994 120.087V129.856Z" fill="#141414"/>
<path d="M403.067 37.439H448.225V72.4228H403.067V37.439Z" fill="#141414"/>
<path d="M395.305 37.439H436.582V72.4228H395.305V37.439Z" fill="#A1C487"/>
<path d="M395.076 72.6533H436.809V37.2151H395.076V72.6533ZM436.353 72.199H395.532V37.6694H436.353V72.199Z" fill="#141414"/>
<path d="M409.414 37.4387V46.1623L412.017 44.7538L414.026 46.0715L416.4 44.7538L418.592 46.1623V37.4387H409.414Z" fill="#141414"/>
<path d="M418.545 54.436H428.088V55.3452H418.545V54.436Z" fill="#141414"/>
<path d="M418.545 58.1094H428.088V59.0186H418.545V58.1094Z" fill="#141414"/>
<path d="M418.545 61.8381H428.088V62.7473H418.545V61.8381Z" fill="#141414"/>
<path d="M400.374 53.8423H415.807V63.4292H400.374V53.8423Z" fill="#FEFEFE"/>
<path d="M400.144 63.6533H416.034V53.6121H400.144V63.6533ZM415.577 63.1989H400.6V54.0664H415.577V63.1989Z" fill="#141414"/>
<path d="M474.981 131.625L488.223 130.035V119.903L477.082 121.629L474.981 131.625Z" fill="#141414"/>
<path d="M478.999 120.63L487.355 119.039L488.725 78.24C488.816 75.6503 490.003 73.1969 492.012 71.5159L500.551 64.4282C500.551 64.4282 502.194 74.8325 518.13 64.4282L532.878 69.6985C537.033 71.1978 540.183 74.6962 541.188 78.967L550.503 123.992C551.37 128.172 548.265 132.124 543.973 132.261L539.544 132.397L541.69 146.754C541.69 146.754 526.486 153.251 510.87 154.205C492.88 155.341 486.99 151.07 487.218 150.479L488.131 135.214L478.999 135.577V120.63Z" fill="#CDCBCC"/>
<path d="M505.026 154.703C506.806 154.703 508.77 154.658 510.87 154.522C526.349 153.567 541.599 147.116 541.782 147.025L541.965 146.934L541.919 146.752L539.819 132.668L544.019 132.532C546.12 132.441 548.083 131.487 549.407 129.806C550.731 128.17 551.234 126.035 550.777 123.99L541.462 78.9655C540.412 74.5584 537.262 71.06 532.97 69.5153L518.13 64.1996L518.039 64.245C511.875 68.2886 506.989 69.697 503.884 68.334C501.281 67.1982 500.825 64.4267 500.825 64.4267L500.779 64.0178L491.967 71.3781C489.912 73.1045 488.679 75.6034 488.588 78.284L487.218 118.902L478.862 120.492V135.939L487.994 135.576L487.081 150.569C487.035 150.705 487.081 150.796 487.172 150.932C487.72 151.796 492.515 154.703 505.026 154.703ZM541.417 146.662C539.727 147.343 525.39 153.113 510.824 154.022C493.61 155.112 487.72 151.205 487.446 150.569V150.523L488.36 134.985L479.182 135.349V120.764L487.538 119.174L488.907 78.1931C488.999 75.6488 490.186 73.2863 492.104 71.6507L500.322 64.7902C500.551 65.6534 501.327 67.6979 503.564 68.652C506.852 70.1059 511.692 68.7429 518.084 64.6085L532.741 69.8333C536.851 71.2872 539.91 74.6947 540.915 78.9655L550.229 123.99C550.64 125.898 550.138 127.897 548.951 129.442C547.718 130.987 545.891 131.896 543.928 131.987L539.225 132.123L541.417 146.662Z" fill="#141414"/>
<path d="M539.506 132.14L539.532 132.595L487.745 135.553L487.719 135.098L539.506 132.14Z" fill="#141414"/>
<path d="M487.173 119.264L526.577 111.177L523.016 91.6401L522.559 91.731L526.075 110.813L487.081 118.855L487.173 119.264Z" fill="#141414"/>
<path d="M319.28 111.679C318.869 116.267 321.745 120.538 326.174 121.901L372.839 136.349L377.268 137.894C378.957 138.484 380.784 138.666 382.565 138.439L391.514 137.349C392.062 137.258 392.656 137.121 393.158 136.94L403.614 133.123C404.938 132.623 406.125 131.715 406.902 130.534L407.038 130.306C407.586 129.489 406.993 128.398 405.988 128.398H389.185C394.071 125.309 393.706 122.583 393.706 122.583L383.387 123.991L375.853 124.9L340.283 107.635L344.393 87.2353L345.215 83.1008H321.563L321.334 85.5088L319.28 111.679Z" fill="#FFAC71"/>
<path d="M381.15 138.756C381.652 138.756 382.154 138.711 382.611 138.665L391.56 137.575C392.154 137.484 392.747 137.347 393.25 137.166L403.706 133.349C405.122 132.85 406.263 131.941 407.085 130.669L407.222 130.442C407.541 129.987 407.541 129.397 407.267 128.942C406.993 128.443 406.537 128.17 405.943 128.17H389.917C394.209 125.217 393.935 122.672 393.889 122.536L393.843 122.309L383.296 123.717L375.808 124.581L340.467 107.452L345.444 82.7817H321.335L318.869 111.632C318.458 116.357 321.381 120.673 325.947 122.082L372.611 136.53L377.04 138.074C378.456 138.529 379.826 138.756 381.15 138.756ZM406.08 128.624C406.446 128.624 406.811 128.806 406.993 129.169C407.176 129.487 407.176 129.896 406.948 130.214L406.811 130.442C406.035 131.577 404.939 132.441 403.66 132.94L393.204 136.757C392.702 136.939 392.154 137.075 391.606 137.166L382.657 138.256C380.922 138.483 379.095 138.302 377.451 137.711L373.022 136.166L326.358 121.718C322.02 120.355 319.235 116.266 319.6 111.723L322.02 83.2815H345.17L340.238 107.725L340.375 107.816L375.99 125.08L383.616 124.172L393.661 122.809C393.615 123.49 393.113 125.716 389.232 128.17L388.593 128.579H406.08V128.624Z" fill="#141414"/>
<path d="M347.397 73.2543L347.841 73.3604L345.317 83.8317L344.873 83.7256L347.397 73.2543Z" fill="#141414"/>
<path d="M321.518 85.4191L344.485 87.191L345.353 83.011H321.701L321.518 85.4191Z" fill="#141414"/>
<path d="M444.543 204.795C443.343 204.795 442.155 205.03 441.046 205.486C439.937 205.943 438.929 206.613 438.081 207.457C437.232 208.301 436.558 209.304 436.099 210.407C435.639 211.511 435.402 212.693 435.402 213.888C435.402 211.476 434.439 209.162 432.725 207.456C431.011 205.75 428.687 204.792 426.263 204.792C428.687 204.792 431.011 203.834 432.725 202.128C434.439 200.422 435.402 198.109 435.402 195.696C435.402 198.109 436.365 200.422 438.078 202.128C439.792 203.834 442.117 204.792 444.54 204.792L444.543 204.795Z" fill="#141414"/>
<path d="M468.752 262.273C470.811 262.273 472.48 260.612 472.48 258.563C472.48 256.513 470.811 254.852 468.752 254.852C466.693 254.852 465.024 256.513 465.024 258.563C465.024 260.612 466.693 262.273 468.752 262.273Z" fill="#A1C487"/>
<path d="M315.776 219.997C317.835 219.997 319.504 218.336 319.504 216.286C319.504 214.237 317.835 212.575 315.776 212.575C313.717 212.575 312.048 214.237 312.048 216.286C312.048 218.336 313.717 219.997 315.776 219.997Z" fill="#A1C487"/>
<path d="M443.157 159.485C445.788 159.485 447.92 157.363 447.92 154.744C447.92 152.126 445.788 150.003 443.157 150.003C440.526 150.003 438.393 152.126 438.393 154.744C438.393 157.363 440.526 159.485 443.157 159.485Z" fill="#A1C487"/>
<path d="M182.197 258.327C180.21 258.327 178.304 259.113 176.899 260.512C175.494 261.911 174.704 263.808 174.704 265.786C174.704 263.808 173.915 261.911 172.509 260.512C171.104 259.113 169.198 258.327 167.211 258.327C169.198 258.327 171.104 257.542 172.509 256.143C173.915 254.744 174.704 252.847 174.704 250.869C174.704 252.847 175.494 254.744 176.899 256.143C178.304 257.542 180.21 258.327 182.197 258.327Z" fill="#141414"/>
<path d="M226.014 253.433C227.387 253.433 228.5 252.325 228.5 250.958C228.5 249.591 227.387 248.483 226.014 248.483C224.641 248.483 223.527 249.591 223.527 250.958C223.527 252.325 224.641 253.433 226.014 253.433Z" fill="#A1C487"/>
<path d="M296.389 128.928C295.189 128.927 294 129.162 292.891 129.619C291.782 130.076 290.775 130.745 289.926 131.59C289.077 132.434 288.404 133.437 287.944 134.54C287.484 135.643 287.247 136.826 287.247 138.021C287.247 135.608 286.284 133.295 284.57 131.589C282.857 129.883 280.532 128.925 278.109 128.925C280.532 128.925 282.857 127.966 284.57 126.261C286.284 124.555 287.247 122.241 287.247 119.829C287.247 122.241 288.21 124.555 289.924 126.261C291.637 127.966 293.962 128.925 296.386 128.925L296.389 128.928Z" fill="#141414"/>
<path d="M283.737 71.4535L283.744 71.4535L283.752 71.4532C284.934 71.4162 286.111 71.6158 287.213 72.0402C288.315 72.4645 289.32 73.1049 290.169 73.9233C291.017 74.7416 291.692 75.7212 292.152 76.8037C292.613 77.8863 292.85 79.0498 292.85 80.2253C292.85 81.4007 292.613 82.5643 292.152 83.6468C291.692 84.7293 291.017 85.7089 290.169 86.5272C289.32 87.3456 288.315 87.986 287.213 88.4104C286.111 88.8347 284.934 89.0343 283.752 88.9973L283.744 88.9971H283.737L245.756 88.997L245.753 88.9971C244.654 89.0035 243.57 88.7487 242.591 88.254C241.611 87.7592 240.765 87.0389 240.122 86.1531C239.479 85.2674 239.059 84.2418 238.895 83.1618C238.731 82.0818 238.828 80.9784 239.18 79.9435C239.531 78.9085 240.125 77.9718 240.914 77.2114C241.702 76.4509 242.662 75.8888 243.714 75.5721C244.765 75.2553 245.877 75.193 246.958 75.3906C248.038 75.5881 249.056 76.0396 249.925 76.7073L250.903 77.4583L250.724 76.2384C250.156 72.3546 251.145 68.4039 253.48 65.2397C255.814 62.0754 259.306 59.9516 263.201 59.3278C267.096 58.7041 271.082 59.6307 274.296 61.907C277.51 64.1832 279.695 67.6261 280.379 71.4914L280.479 72.0561L281.025 71.8801C281.901 71.5977 282.816 71.4537 283.737 71.4535Z" fill="white" stroke="#141414"/>
<path d="M292.153 338.051C293.526 338.051 294.639 336.943 294.639 335.576C294.639 334.21 293.526 333.102 292.153 333.102C290.779 333.102 289.666 334.21 289.666 335.576C289.666 336.943 290.779 338.051 292.153 338.051Z" fill="#A1C487"/>
</svg>
